<svg width="65" height="65" viewBox="0 0 65 65" fill="none" xmlns="http://www.w3.org/2000/svg">
<g clip-path="url(#clip0_9_22)">
<path d="M32.308 64.2275C29.0662 64.2275 25.8129 63.686 22.6379 62.6181C21.6421 62.2831 21.1065 61.2045 21.4415 60.2089C21.7762 59.2131 22.8546 58.6771 23.8507 59.0125C26.6341 59.9488 29.4795 60.4233 32.3081 60.4233C47.8552 60.4233 60.5037 47.6621 60.5037 31.9768C60.504 16.5679 47.7991 4.03176 32.1827 4.03176C16.7049 4.03176 4.11236 16.5679 4.11236 31.9768C4.11236 37.386 5.61098 42.6218 8.44636 47.1191L9.18548 48.2279C9.49073 48.6861 9.58286 49.2543 9.43736 49.7854L7.41711 57.1635L15.0321 55.2155C16.0501 54.9548 17.0859 55.5691 17.3464 56.5868C17.6067 57.6046 16.9927 58.6406 15.9751 58.901L5.19011 61.66C4.53348 61.828 3.83748 61.634 3.36236 61.1508C2.88723 60.6675 2.70498 59.9684 2.88398 59.3149L5.53936 49.6168L5.26773 49.2094C5.25923 49.1965 5.25061 49.1834 5.24223 49.17C2.01436 44.0594 0.308105 38.1139 0.308105 31.9768C0.308105 23.468 3.62498 15.4844 9.64773 9.49663C15.6597 3.51926 23.6627 0.227509 32.1826 0.227509C40.7271 0.227509 48.7714 3.49913 54.8332 9.43988C60.9432 15.4275 64.3081 23.4313 64.3081 31.9765C64.3081 40.5368 60.9551 48.6235 54.8666 54.7468C48.7877 60.8605 40.7762 64.2275 32.308 64.2275Z" fill="#26A96C"/>
<path d="M50.2103 44.362L50.7895 42.4529C50.9748 41.909 50.7553 41.1916 50.223 40.8673L41.812 36.1081C41.2798 35.784 40.5739 35.8646 40.1109 36.3853L36.2675 40.5381C35.9666 40.7926 35.5384 40.8965 35.1335 40.7229C33.7268 40.0899 30.6405 38.6715 28.3464 36.3773L28.3468 36.3769C28.315 36.3456 28.2841 36.3143 28.2526 36.2831C28.2214 36.2515 28.19 36.2208 28.1589 36.189L28.1585 36.1894C25.7663 33.7971 24.4458 30.809 23.8129 29.4023C23.6393 28.9973 23.7431 28.5691 23.9976 28.2683L28.1505 24.4249C28.6711 23.9619 28.7518 23.2559 28.4276 22.7238L23.6685 14.3128C23.3444 13.7805 22.6268 13.561 22.0829 13.7463L20.1738 14.3255C18.1258 14.9165 16.2864 16.3288 15.1994 18.3774C13.8813 21.0046 13.4426 24.1176 14.8789 27.9128C17.2898 34.3123 20.6064 38.6951 23.2236 41.3123C25.8408 43.9294 30.2236 47.2459 36.6231 49.657C40.4183 51.0933 43.531 50.6546 46.1585 49.3365C48.2069 48.2494 49.6193 46.41 50.2103 44.362Z" fill="#F6F7EB"/>
<path d="M41.1828 52.4509C41.1826 52.4509 41.1825 52.4509 41.1822 52.4509C39.4897 52.4509 37.7291 52.1093 35.9495 51.4358C28.9312 48.7916 24.4233 45.2024 21.8782 42.6571C19.333 40.1121 15.7437 35.6043 13.0986 28.5831C11.63 24.7031 11.7645 20.9815 13.499 17.5244C13.5055 17.5115 13.5121 17.4985 13.5187 17.4858C14.7986 15.0735 17.0265 13.2575 19.6325 12.5016L21.5066 11.9329C21.8195 11.8308 22.1493 11.779 22.4875 11.779C23.6375 11.779 24.7122 12.3705 25.2923 13.3228C25.303 13.3403 25.3132 13.358 25.3236 13.3759L30.0708 21.7659C30.8551 23.0873 30.5885 24.7873 29.4312 25.8308L25.8035 29.188C26.4535 30.6053 27.6221 32.9506 29.4735 34.8145C29.4883 34.8288 29.503 34.843 29.5172 34.8579L29.6772 35.0179C29.6918 35.0321 29.7063 35.0468 29.7206 35.0616C31.5301 36.8578 33.9855 38.0988 35.3482 38.7309L38.7045 35.1043C39.3297 34.4108 40.2117 34.0136 41.128 34.0136C41.7055 34.0136 42.2721 34.1694 42.7693 34.4646L51.1593 39.2119C51.1772 39.222 51.195 39.2324 51.2125 39.2431C52.4663 40.0073 53.0592 41.6284 52.6023 43.0288L52.0336 44.9031C51.2777 47.5093 49.4617 49.737 47.0495 51.0169C47.0367 51.0238 47.024 51.0303 47.0108 51.0366C45.1405 51.975 43.1796 52.4509 41.1828 52.4509ZM16.8895 19.2504C15.6437 21.7464 15.5678 24.36 16.6578 27.2393C19.1916 33.9646 22.7016 38.1001 24.5686 39.9671C26.4355 41.834 30.5711 45.3443 37.2937 47.8769C38.6442 48.388 39.9517 48.6466 41.1826 48.6466H41.183C42.5947 48.6466 43.9367 48.3195 45.2852 47.6461C46.7867 46.8429 47.9151 45.4549 48.3826 43.8346C48.3851 43.8263 48.3873 43.8179 48.39 43.8098L48.8546 42.2785L41.2373 37.9685L37.6636 41.8301C37.611 41.887 37.5548 41.9406 37.4956 41.9906C36.9462 42.4549 36.2546 42.7108 35.5476 42.7108C35.1465 42.7108 34.7548 42.6301 34.3835 42.4709C34.3732 42.4665 34.3631 42.4619 34.3528 42.4574C33.052 41.8721 29.5962 40.3173 27.0012 37.722C26.9915 37.7123 26.982 37.7026 26.9727 37.6928L26.9156 37.6361C26.9102 37.6308 26.9047 37.6253 26.8995 37.62L26.8428 37.5629C26.833 37.5535 26.8232 37.5439 26.8136 37.5344C24.2158 34.9366 22.7946 31.7758 22.1116 30.2566L22.0783 30.1826C22.0737 30.1724 22.0693 30.1623 22.0648 30.152C21.6182 29.1108 21.8023 27.9184 22.5453 27.0398C22.5953 26.9806 22.649 26.9246 22.7057 26.872L26.5673 23.2983L22.2573 15.681L20.7261 16.1456C20.718 16.1481 20.7096 16.1506 20.7012 16.153C19.0807 16.6205 17.6927 17.7486 16.8895 19.2504Z" fill="#26A96C"/>
</g>
<defs>
<clipPath id="clip0_9_22">
<rect width="64" height="64" fill="white" transform="translate(0.308105 0.227509)"/>
</clipPath>
</defs>
</svg>
